# Blender v2.82 (sub 7) OBJ File: ''
# www.blender.org
mtllib mt_arch_single.mtl
o cube.000
v 1.003125 1.234162 0.435069
v 1.003125 1.000639 0.478350
v 1.003125 1.203837 0.271450
v 1.003125 0.970314 0.314730
v -0.002500 1.203837 0.271450
v -0.002500 0.970314 0.314730
v -0.002500 1.234162 0.435069
v -0.002500 1.000639 0.478350
vt 0.843750 1.000000
vt 0.843750 0.750000
vt 1.000000 1.000000
vt 1.000000 0.750000
vt 0.843750 1.000000
vt 0.843750 0.750000
vt 1.000000 1.000000
vt 1.000000 0.750000
vt 0.000000 0.781250
vt 1.000000 0.781250
vt 1.000000 0.937500
vt 0.000000 0.937500
vn 1.0000 -0.0000 0.0000
vn -1.0000 0.0000 0.0000
vn 0.0000 0.9833 -0.1822
usemtl m_2
s 1
f 1/1/1 2/2/1 3/3/1
f 2/2/1 4/4/1 3/3/1
f 5/5/2 6/6/2 7/7/2
f 6/6/2 8/8/2 7/7/2
usemtl m_1
f 3/9/3 5/10/3 7/11/3
f 3/9/3 7/11/3 1/12/3
o cube.001
v 1.003125 1.158624 0.141318
v 1.003125 0.962894 0.275839
v 1.003125 1.070123 0.012548
v 1.003125 0.874393 0.147070
v -0.002500 1.070123 0.012548
v -0.002500 0.874393 0.147070
v -0.002500 1.158624 0.141318
v -0.002500 0.962894 0.275839
vt 0.843750 1.000000
vt 0.843750 0.750000
vt 1.000000 1.000000
vt 1.000000 0.750000
vt 0.843750 1.000000
vt 0.843750 0.750000
vt 1.000000 1.000000
vt 1.000000 0.750000
vt 1.000000 0.781250
vt 1.000000 0.937500
vt 0.000000 0.781250
vt 0.000000 0.937500
vn 1.0000 0.0000 0.0000
vn -1.0000 0.0000 0.0000
vn 0.0000 0.8241 -0.5664
usemtl m_2
s 1
f 9/13/4 10/14/4 11/15/4
f 10/14/4 12/16/4 11/15/4
f 13/17/5 14/18/5 15/19/5
f 14/18/5 16/20/5 15/19/5
usemtl m_1
f 13/21/6 15/22/6 11/23/6
f 15/22/6 9/24/6 11/23/6
o cube.002
v 1.003125 0.971064 -0.076857
v 1.003125 0.822678 0.116522
v 1.003125 0.842144 -0.175781
v 1.003125 0.693758 0.017599
v -0.002500 0.842144 -0.175781
v -0.002500 0.693758 0.017599
v -0.002500 0.971064 -0.076857
v -0.002500 0.822678 0.116522
vt 0.843750 1.000000
vt 0.843750 0.750000
vt 1.000000 1.000000
vt 1.000000 0.750000
vt 0.843750 1.000000
vt 0.843750 0.750000
vt 1.000000 1.000000
vt 1.000000 0.750000
vt 1.000000 0.437500
vt 1.000000 0.593750
vt 0.000000 0.437500
vt 0.000000 0.593750
vn 1.0000 0.0000 0.0000
vn -1.0000 -0.0000 0.0000
vn 0.0000 0.6088 -0.7934
usemtl m_2
s 1
f 17/25/7 18/26/7 19/27/7
f 18/26/7 20/28/7 19/27/7
f 21/29/8 22/30/8 23/31/8
f 22/30/8 24/32/8 23/31/8
usemtl m_1
f 21/33/9 23/34/9 19/35/9
f 23/34/9 17/36/9 19/35/9
o cube.003
v 1.003125 0.726887 -0.217100
v 1.003125 0.669984 0.019915
v 1.003125 0.574954 -0.253576
v 1.003125 0.518051 -0.016561
v -0.002500 0.574954 -0.253576
v -0.002500 0.518051 -0.016561
v -0.002500 0.726887 -0.217100
v -0.002500 0.669984 0.019915
vt 0.843750 1.000000
vt 0.843750 0.750000
vt 1.000000 1.000000
vt 1.000000 0.750000
vt 0.843750 1.000000
vt 0.843750 0.756250
vt 1.000000 1.000000
vt 1.000000 0.756250
vt 1.000000 0.093750
vt 1.000000 0.250000
vt 0.000000 0.093750
vt 0.000000 0.250000
vn 1.0000 0.0000 0.0000
vn -1.0000 0.0000 0.0000
vn 0.0000 0.2334 -0.9724
usemtl m_2
s 1
f 25/37/10 26/38/10 27/39/10
f 26/38/10 28/40/10 27/39/10
f 29/41/11 30/42/11 31/43/11
f 30/42/11 32/44/11 31/43/11
usemtl m_1
f 29/45/12 31/46/12 27/47/12
f 31/46/12 25/48/12 27/47/12
o cube.004
v 1.005625 0.596094 0.006250
v 1.005625 0.496094 0.006250
v 1.005625 0.596094 -0.262500
v 1.005625 0.496094 -0.262500
v -0.005000 0.596094 -0.262500
v -0.005000 0.496094 -0.262500
v -0.005000 0.596094 0.006250
v -0.005000 0.496094 0.006250
vt 0.268750 0.118750
vt 0.268750 0.218750
vt 0.000000 0.118750
vt 0.000000 0.218750
vt 0.000000 0.218750
vt 0.000000 0.118750
vt 0.268750 0.218750
vt 0.268750 0.118750
vt 1.000000 0.106250
vt 1.000000 0.375000
vt 0.000000 0.106250
vt 0.000000 0.375000
vt 1.000000 0.731250
vt 1.000000 1.000000
vt 0.000000 0.731250
vt 0.000000 1.000000
vt 0.000000 0.093750
vt 0.000000 0.000000
vt 1.000000 0.093750
vt 1.000000 0.000000
vt 0.000000 0.093750
vt 0.000000 0.000000
vt 1.000000 0.093750
vt 1.000000 0.000000
vn 1.0000 0.0000 0.0000
vn -1.0000 0.0000 0.0000
vn 0.0000 1.0000 0.0000
vn 0.0000 -1.0000 0.0000
vn 0.0000 -0.0000 1.0000
vn 0.0000 0.0000 -1.0000
usemtl m_2
s 1
f 33/49/13 34/50/13 35/51/13
f 34/50/13 36/52/13 35/51/13
f 37/53/14 38/54/14 39/55/14
f 38/54/14 40/56/14 39/55/14
usemtl m_1
f 37/57/15 39/58/15 35/59/15
f 39/58/15 33/60/15 35/59/15
f 40/61/16 38/62/16 34/63/16
f 38/62/16 36/64/16 34/63/16
f 39/65/17 40/66/17 33/67/17
f 40/66/17 34/68/17 33/67/17
f 35/69/18 36/70/18 37/71/18
f 36/70/18 38/72/18 37/71/18
o cube.005
v 1.005625 1.246094 0.500000
v 1.005625 0.983594 0.500000
v 1.005625 1.246094 0.394531
v 1.005625 0.983594 0.394531
v -0.005000 1.246094 0.394531
v -0.005000 0.983594 0.394531
v -0.005000 1.246094 0.500000
v -0.005000 0.983594 0.500000
vt 0.000000 0.894531
vt 0.262500 0.894531
vt 0.000000 1.000000
vt 0.262500 1.000000
vt 0.000000 0.082031
vt 0.262500 0.082031
vt 0.000000 0.187500
vt 0.262500 0.187500
vt 1.000000 0.781250
vt 1.000000 0.875000
vt 0.000000 0.781250
vt 0.000000 0.875000
vt 1.000000 0.832031
vt 1.000000 0.937500
vt 0.000000 0.832031
vt 0.000000 0.937500
vt 0.000000 1.000000
vt 0.000000 0.577344
vt 1.000000 1.000000
vt 1.000000 0.577344
vt 0.000000 0.737500
vt 1.000000 1.000000
vt 1.000000 0.737500
vn 1.0000 0.0000 0.0000
vn -1.0000 0.0000 0.0000
vn 0.0000 1.0000 0.0000
vn 0.0000 -1.0000 0.0000
vn 0.0000 0.0000 1.0000
vn 0.0000 0.0000 -1.0000
usemtl m_2
s 1
f 41/73/19 42/74/19 43/75/19
f 42/74/19 44/76/19 43/75/19
f 45/77/20 46/78/20 47/79/20
f 46/78/20 48/80/20 47/79/20
usemtl m_1
f 45/81/21 47/82/21 43/83/21
f 47/82/21 41/84/21 43/83/21
f 48/85/22 46/86/22 42/87/22
f 46/86/22 44/88/22 42/87/22
f 47/89/23 48/90/23 41/91/23
f 48/90/23 42/92/23 41/91/23
f 43/75/24 44/93/24 45/94/24
f 44/93/24 46/95/24 45/94/24
o cube.006
v 1.005625 1.228576 0.298102
v 1.005625 0.981568 0.397900
v 1.005625 1.155410 0.117012
v 1.005625 0.908403 0.216809
v -0.005000 1.155410 0.117012
v -0.005000 0.908403 0.216809
v -0.005000 1.228576 0.298102
v -0.005000 0.981568 0.397900
vt 0.000000 0.460938
vt 0.266406 0.460938
vt 0.000000 0.656250
vt 0.266406 0.656250
vt 0.000000 0.023438
vt 0.266406 0.023438
vt 0.000000 0.218750
vt 0.266406 0.218750
vt 1.000000 0.031250
vt 1.000000 0.218750
vt 0.000000 0.031250
vt 0.000000 0.218750
vt 0.000000 0.812500
vt 0.000000 0.625000
vt 1.000000 0.812500
vt 1.000000 0.625000
vt 1.000000 0.656250
vt 1.000000 0.937500
vt 0.000000 0.656250
vt 0.000000 0.937500
vt 0.000000 0.375000
vt 0.000000 0.093750
vt 1.000000 0.375000
vt 1.000000 0.093750
vn 1.0000 0.0000 0.0000
vn -1.0000 0.0000 0.0000
vn 0.0000 0.9272 -0.3746
vn 0.0000 -0.9272 0.3746
vn 0.0000 0.3746 0.9272
vn 0.0000 -0.3746 -0.9272
usemtl m_2
s 1
f 49/96/25 50/97/25 51/98/25
f 50/97/25 52/99/25 51/98/25
f 53/100/26 54/101/26 55/102/26
f 54/101/26 56/103/26 55/102/26
usemtl m_1
f 53/104/27 55/105/27 51/106/27
f 55/105/27 49/107/27 51/106/27
f 56/108/28 54/109/28 50/110/28
f 54/109/28 52/111/28 50/110/28
f 55/112/29 56/113/29 49/114/29
f 56/113/29 50/115/29 49/114/29
f 51/116/30 52/117/30 53/118/30
f 52/117/30 54/119/30 53/118/30
o cube.007
v 1.005625 1.099318 0.037057
v 1.005625 0.907682 0.222119
v 1.005625 0.963643 -0.103439
v 1.005625 0.772006 0.081623
v -0.005000 0.963643 -0.103439
v -0.005000 0.772006 0.081623
v -0.005000 1.099318 0.037057
v -0.005000 0.907682 0.222119
vt 0.000000 0.023438
vt 0.266406 0.023438
vt 0.000000 0.218750
vt 0.266406 0.218750
vt 0.000000 0.468750
vt 0.281250 0.468750
vt 0.000000 0.656250
vt 0.281250 0.656250
vt 1.000000 0.585938
vt 1.000000 0.781250
vt 0.000000 0.585938
vt 0.000000 0.781250
vt 0.000000 0.593750
vt 0.000000 0.406250
vt 1.000000 0.593750
vt 1.000000 0.406250
vt 1.000000 0.625000
vt 1.000000 0.906250
vt 0.000000 0.625000
vt 0.000000 0.906250
vt 0.000000 0.687500
vt 0.000000 0.406250
vt 1.000000 0.687500
vt 1.000000 0.406250
vn 1.0000 -0.0000 0.0000
vn -1.0000 -0.0000 0.0000
vn 0.0000 0.7193 -0.6947
vn 0.0000 -0.7193 0.6947
vn 0.0000 0.6947 0.7193
vn 0.0000 -0.6947 -0.7193
usemtl m_2
s 1
f 57/120/31 58/121/31 59/122/31
f 58/121/31 60/123/31 59/122/31
f 61/124/32 62/125/32 63/126/32
f 62/125/32 64/127/32 63/126/32
usemtl m_1
f 61/128/33 63/129/33 59/130/33
f 63/129/33 57/131/33 59/130/33
f 64/132/34 62/133/34 58/134/34
f 62/133/34 60/135/34 58/134/34
f 63/136/35 64/137/35 57/138/35
f 64/137/35 58/139/35 57/138/35
f 59/140/36 60/141/36 61/142/36
f 60/141/36 62/143/36 61/142/36
o cube.008
v 1.005625 0.879427 -0.159860
v 1.005625 0.771070 0.083515
v 1.005625 0.704569 -0.237712
v 1.005625 0.596211 0.005663
v -0.005000 0.704569 -0.237712
v -0.005000 0.596211 0.005663
v -0.005000 0.879427 -0.159860
v -0.005000 0.771070 0.083515
vt 0.000000 0.464844
vt 0.266406 0.464844
vt 0.000000 0.656250
vt 0.266406 0.656250
vt 0.000000 0.027344
vt 0.266406 0.027344
vt 0.000000 0.218750
vt 0.266406 0.218750
vt 1.000000 0.250000
vt 1.000000 0.437500
vt 0.000000 0.250000
vt 0.000000 0.437500
vt 0.000000 0.375000
vt 0.000000 0.183594
vt 1.000000 0.375000
vt 1.000000 0.183594
vt 1.000000 0.358594
vt 1.000000 0.625000
vt 0.000000 0.358594
vt 0.000000 0.625000
vt 0.000000 0.437500
vt 0.000000 0.156250
vt 1.000000 0.437500
vt 1.000000 0.156250
vn 1.0000 0.0000 0.0000
vn -1.0000 -0.0000 0.0000
vn 0.0000 0.4067 -0.9135
vn 0.0000 -0.4067 0.9135
vn 0.0000 0.9135 0.4067
vn 0.0000 -0.9135 -0.4067
usemtl m_2
s 1
f 65/144/37 66/145/37 67/146/37
f 66/145/37 68/147/37 67/146/37
f 69/148/38 70/149/38 71/150/38
f 70/149/38 72/151/38 71/150/38
usemtl m_1
f 69/152/39 71/153/39 67/154/39
f 71/153/39 65/155/39 67/154/39
f 72/156/40 70/157/40 66/158/40
f 70/157/40 68/159/40 66/158/40
f 71/160/41 72/161/41 65/162/41
f 72/161/41 66/163/41 65/162/41
f 67/164/42 68/165/42 69/166/42
f 68/165/42 70/167/42 69/166/42
o cube.009
v 1.002500 0.574953 1.252014
v 1.002500 0.518051 1.014999
v 1.002500 0.726886 1.215538
v 1.002500 0.669984 0.978523
v -0.003125 0.726886 1.215538
v -0.003125 0.669984 0.978523
v -0.003125 0.574953 1.252014
v -0.003125 0.518051 1.014999
vt 0.843750 1.000000
vt 0.843750 0.750000
vt 1.000000 1.000000
vt 1.000000 0.750000
vt 0.843750 1.000000
vt 0.843750 0.750000
vt 1.000000 1.000000
vt 1.000000 0.750000
vt 0.000000 0.250000
vt 0.000000 0.093750
vt 1.000000 0.250000
vt 1.000000 0.093750
vn 1.0000 -0.0000 0.0000
vn -1.0000 0.0000 0.0000
vn 0.0000 0.2334 0.9724
usemtl m_2
s 1
f 73/168/43 74/169/43 75/170/43
f 74/169/43 76/171/43 75/170/43
f 77/172/44 78/173/44 79/174/44
f 78/173/44 80/175/44 79/174/44
usemtl m_1
f 77/176/45 79/177/45 75/178/45
f 79/177/45 73/179/45 75/178/45
o cube.010
v 1.005000 0.596094 1.260937
v 1.005000 0.496094 1.260937
v 1.005000 0.596094 0.992187
v 1.005000 0.496094 0.992187
v -0.005625 0.596094 0.992187
v -0.005625 0.496094 0.992187
v -0.005625 0.596094 1.260937
v -0.005625 0.496094 1.260937
vt 0.000000 0.218750
vt 0.000000 0.118750
vt 0.268750 0.218750
vt 0.268750 0.118750
vt 0.268750 0.118750
vt 0.268750 0.218750
vt 0.000000 0.118750
vt 0.000000 0.218750
vt 0.000000 0.375000
vt 0.000000 0.106250
vt 1.000000 0.375000
vt 1.000000 0.106250
vt 0.000000 1.000000
vt 0.000000 0.731250
vt 1.000000 1.000000
vt 1.000000 0.731250
vt 0.000000 0.093750
vt 0.000000 0.000000
vt 1.000000 0.093750
vt 1.000000 0.000000
vt 0.000000 0.093750
vt 0.000000 0.000000
vt 1.000000 0.093750
vt 1.000000 0.000000
vn 1.0000 0.0000 0.0000
vn -1.0000 0.0000 0.0000
vn 0.0000 1.0000 0.0000
vn 0.0000 -1.0000 -0.0000
vn 0.0000 0.0000 1.0000
vn 0.0000 0.0000 -1.0000
usemtl m_2
s 1
f 81/180/46 82/181/46 83/182/46
f 82/181/46 84/183/46 83/182/46
f 85/184/47 86/185/47 87/186/47
f 86/185/47 88/187/47 87/186/47
usemtl m_1
f 85/188/48 87/189/48 83/190/48
f 87/189/48 81/191/48 83/190/48
f 88/192/49 86/193/49 82/194/49
f 86/193/49 84/195/49 82/194/49
f 87/196/50 88/197/50 81/198/50
f 88/197/50 82/199/50 81/198/50
f 83/200/51 84/201/51 85/202/51
f 84/201/51 86/203/51 85/202/51
o cube.011
v 1.005000 1.246094 0.603906
v 1.005000 0.983594 0.603906
v 1.005000 1.246094 0.498438
v 1.005000 0.983594 0.498438
v -0.005625 1.246094 0.498438
v -0.005625 0.983594 0.498438
v -0.005625 1.246094 0.603906
v -0.005625 0.983594 0.603906
vt 0.000000 0.082031
vt 0.262500 0.082031
vt 0.000000 0.187500
vt 0.262500 0.187500
vt 0.000000 0.894531
vt 0.262500 0.894531
vt 0.000000 1.000000
vt 0.262500 1.000000
vt 1.000000 0.906250
vt 1.000000 1.000000
vt 0.000000 0.906250
vt 0.000000 1.000000
vt 1.000000 0.843750
vt 1.000000 0.937500
vt 0.000000 0.843750
vt 0.000000 0.937500
vt 0.000000 0.737500
vt 1.000000 1.000000
vt 1.000000 0.737500
vt 0.000000 1.000000
vt 0.000000 0.577344
vt 1.000000 1.000000
vt 1.000000 0.577344
vn 1.0000 0.0000 0.0000
vn -1.0000 0.0000 0.0000
vn 0.0000 1.0000 0.0000
vn 0.0000 -1.0000 -0.0000
vn 0.0000 0.0000 1.0000
vn 0.0000 0.0000 -1.0000
usemtl m_2
s 1
f 89/204/52 90/205/52 91/206/52
f 90/205/52 92/207/52 91/206/52
f 93/208/53 94/209/53 95/210/53
f 94/209/53 96/211/53 95/210/53
usemtl m_1
f 93/212/54 95/213/54 91/214/54
f 95/213/54 89/215/54 91/214/54
f 96/216/55 94/217/55 90/218/55
f 94/217/55 92/219/55 90/218/55
f 95/210/56 96/220/56 89/221/56
f 96/220/56 90/222/56 89/221/56
f 91/223/57 92/224/57 93/225/57
f 92/224/57 94/226/57 93/225/57
o cube.012
v 1.002500 1.203837 0.726988
v 1.002500 0.970313 0.683707
v 1.002500 1.234162 0.563368
v 1.002500 1.000639 0.520087
v -0.003125 1.234162 0.563368
v -0.003125 1.000639 0.520087
v -0.003125 1.203837 0.726988
v -0.003125 0.970313 0.683707
vt 0.843750 1.000000
vt 0.843750 0.750000
vt 1.000000 1.000000
vt 1.000000 0.750000
vt 0.843750 1.000000
vt 0.843750 0.750000
vt 1.000000 1.000000
vt 1.000000 0.750000
vt 0.000000 0.781250
vt 1.000000 0.781250
vt 1.000000 0.937500
vt 0.000000 0.937500
vn 1.0000 -0.0000 0.0000
vn -1.0000 0.0000 0.0000
vn 0.0000 0.9833 0.1822
usemtl m_2
s 1
f 97/227/58 98/228/58 99/229/58
f 98/228/58 100/230/58 99/229/58
f 101/231/59 102/232/59 103/233/59
f 102/232/59 104/234/59 103/233/59
usemtl m_1
f 99/235/60 101/236/60 103/237/60
f 99/235/60 103/237/60 97/238/60
o cube.013
v 1.002500 1.070123 0.985889
v 1.002500 0.874393 0.851368
v 1.002500 1.158624 0.857120
v 1.002500 0.962894 0.722598
v -0.003125 1.158624 0.857120
v -0.003125 0.962894 0.722598
v -0.003125 1.070123 0.985889
v -0.003125 0.874393 0.851368
vt 0.843750 1.000000
vt 0.843750 0.750000
vt 1.000000 1.000000
vt 1.000000 0.750000
vt 0.843750 1.000000
vt 0.843750 0.750000
vt 1.000000 1.000000
vt 1.000000 0.750000
vt 0.000000 0.937500
vt 0.000000 0.781250
vt 1.000000 0.937500
vt 1.000000 0.781250
vn 1.0000 -0.0000 0.0000
vn -1.0000 0.0000 0.0000
vn 0.0000 0.8241 0.5664
usemtl m_2
s 1
f 105/239/61 106/240/61 107/241/61
f 106/240/61 108/242/61 107/241/61
f 109/243/62 110/244/62 111/245/62
f 110/244/62 112/246/62 111/245/62
usemtl m_1
f 109/247/63 111/248/63 107/249/63
f 111/248/63 105/250/63 107/249/63
o cube.014
v 1.002500 0.842144 1.174219
v 1.002500 0.693758 0.980839
v 1.002500 0.971064 1.075295
v 1.002500 0.822678 0.881915
v -0.003125 0.971064 1.075295
v -0.003125 0.822678 0.881915
v -0.003125 0.842144 1.174219
v -0.003125 0.693758 0.980839
vt 0.843750 1.000000
vt 0.843750 0.750000
vt 1.000000 1.000000
vt 1.000000 0.750000
vt 0.843750 1.000000
vt 0.843750 0.750000
vt 1.000000 1.000000
vt 1.000000 0.750000
vt 0.000000 0.593750
vt 0.000000 0.431250
vt 1.000000 0.593750
vt 1.000000 0.431250
vn 1.0000 0.0000 0.0000
vn -1.0000 0.0000 0.0000
vn 0.0000 0.6088 0.7934
usemtl m_2
s 1
f 113/251/64 114/252/64 115/253/64
f 114/252/64 116/254/64 115/253/64
f 117/255/65 118/256/65 119/257/65
f 118/256/65 120/258/65 119/257/65
usemtl m_1
f 117/259/66 119/260/66 115/261/66
f 119/260/66 113/262/66 115/261/66
o cube.015
v 1.005000 1.155410 0.881426
v 1.005000 0.908403 0.781628
v 1.005000 1.228576 0.700335
v 1.005000 0.981568 0.600538
v -0.005625 1.228576 0.700335
v -0.005625 0.981568 0.600538
v -0.005625 1.155410 0.881426
v -0.005625 0.908403 0.781628
vt 0.000000 0.023438
vt 0.266406 0.023438
vt 0.000000 0.218750
vt 0.266406 0.218750
vt 0.000000 0.460938
vt 0.266406 0.460938
vt 0.000000 0.656250
vt 0.266406 0.656250
vt 0.000000 0.250000
vt 0.000000 0.062500
vt 1.000000 0.250000
vt 1.000000 0.062500
vt 1.000000 0.617188
vt 1.000000 0.812500
vt 0.000000 0.617188
vt 0.000000 0.812500
vt 0.000000 0.375000
vt 1.000000 0.656250
vt 1.000000 0.375000
vt 1.000000 0.625000
vt 1.000000 0.906250
vt 0.000000 0.625000
vt 0.000000 0.906250
vn 1.0000 0.0000 0.0000
vn -1.0000 0.0000 0.0000
vn 0.0000 0.9272 0.3746
vn 0.0000 -0.9272 -0.3746
vn 0.0000 -0.3746 0.9272
vn 0.0000 0.3746 -0.9272
usemtl m_2
s 1
f 121/263/67 122/264/67 123/265/67
f 122/264/67 124/266/67 123/265/67
f 125/267/68 126/268/68 127/269/68
f 126/268/68 128/270/68 127/269/68
usemtl m_1
f 125/271/69 127/272/69 123/273/69
f 127/272/69 121/274/69 123/273/69
f 128/275/70 126/276/70 122/277/70
f 126/276/70 124/278/70 122/277/70
f 127/269/71 128/279/71 121/280/71
f 128/279/71 122/281/71 121/280/71
f 123/282/72 124/283/72 125/284/72
f 124/283/72 126/285/72 125/284/72
o cube.016
v 1.005000 0.963643 1.101876
v 1.005000 0.772006 0.916815
v 1.005000 1.099318 0.961380
v 1.005000 0.907682 0.776319
v -0.005625 1.099318 0.961380
v -0.005625 0.907682 0.776319
v -0.005625 0.963643 1.101876
v -0.005625 0.772006 0.916815
vt 0.000000 0.460938
vt 0.266406 0.460938
vt 0.000000 0.656250
vt 0.266406 0.656250
vt 0.000000 0.023438
vt 0.266406 0.023438
vt 0.000000 0.218750
vt 0.266406 0.218750
vt 0.000000 0.750000
vt 0.000000 0.562500
vt 1.000000 0.750000
vt 1.000000 0.562500
vt 1.000000 0.398438
vt 1.000000 0.593750
vt 0.000000 0.398438
vt 0.000000 0.593750
vt 0.000000 0.687500
vt 0.000000 0.406250
vt 1.000000 0.687500
vt 1.000000 0.406250
vt 1.000000 0.656250
vt 1.000000 0.937500
vt 0.000000 0.656250
vt 0.000000 0.937500
vn 1.0000 -0.0000 0.0000
vn -1.0000 0.0000 0.0000
vn 0.0000 0.7193 0.6947
vn 0.0000 -0.7193 -0.6947
vn 0.0000 -0.6947 0.7193
vn 0.0000 0.6947 -0.7193
usemtl m_2
s 1
f 129/286/73 130/287/73 131/288/73
f 130/287/73 132/289/73 131/288/73
f 133/290/74 134/291/74 135/292/74
f 134/291/74 136/293/74 135/292/74
usemtl m_1
f 133/294/75 135/295/75 131/296/75
f 135/295/75 129/297/75 131/296/75
f 136/298/76 134/299/76 130/300/76
f 134/299/76 132/301/76 130/300/76
f 135/302/77 136/303/77 129/304/77
f 136/303/77 130/305/77 129/304/77
f 131/306/78 132/307/78 133/308/78
f 132/307/78 134/309/78 133/308/78
o cube.017
v 1.005000 0.704568 1.236149
v 1.005000 0.596211 0.992775
v 1.005000 0.879427 1.158297
v 1.005000 0.771069 0.914923
v -0.005625 0.879427 1.158297
v -0.005625 0.771069 0.914923
v -0.005625 0.704568 1.236149
v -0.005625 0.596211 0.992775
vt 0.000000 0.027344
vt 0.266406 0.027344
vt 0.000000 0.218750
vt 0.266406 0.218750
vt 0.000000 0.464844
vt 0.266406 0.464844
vt 0.000000 0.656250
vt 0.266406 0.656250
vt 0.000000 0.468750
vt 0.000000 0.281250
vt 1.000000 0.468750
vt 1.000000 0.281250
vt 1.000000 0.187500
vt 1.000000 0.375000
vt 0.000000 0.187500
vt 0.000000 0.375000
vt 0.000000 0.406250
vt 0.000000 0.125000
vt 1.000000 0.406250
vt 1.000000 0.125000
vt 1.000000 0.343750
vt 1.000000 0.625000
vt 0.000000 0.343750
vt 0.000000 0.625000
vn 1.0000 0.0000 0.0000
vn -1.0000 0.0000 0.0000
vn 0.0000 0.4067 0.9135
vn 0.0000 -0.4067 -0.9135
vn 0.0000 -0.9135 0.4067
vn 0.0000 0.9135 -0.4067
usemtl m_2
s 1
f 137/310/79 138/311/79 139/312/79
f 138/311/79 140/313/79 139/312/79
f 141/314/80 142/315/80 143/316/80
f 142/315/80 144/317/80 143/316/80
usemtl m_1
f 141/318/81 143/319/81 139/320/81
f 143/319/81 137/321/81 139/320/81
f 144/322/82 142/323/82 138/324/82
f 142/323/82 140/325/82 138/324/82
f 143/326/83 144/327/83 137/328/83
f 144/327/83 138/329/83 137/328/83
f 139/330/84 140/331/84 141/332/84
f 140/331/84 142/333/84 141/332/84
